<?xml version="1.0" standalone="no"?>
<!DOCTYPE svg PUBLIC "-//W3C//DTD SVG 20010904//EN"
 "http://www.w3.org/TR/2001/REC-SVG-20010904/DTD/svg10.dtd">
<svg version="1.0" xmlns="http://www.w3.org/2000/svg"
 width="118.000000pt" height="123.000000pt" viewBox="0 0 118.000000 123.000000"
 preserveAspectRatio="xMidYMid meet">

<g transform="translate(0.000000,123.000000) scale(0.100000,-0.100000)"
fill="#000000" stroke="none">
<path d="M429 1070 c-67 -23 -106 -50 -126 -87 -16 -30 -16 -35 -3 -43 11 -7
25 0 52 27 24 23 38 31 38 23 1 -16 41 -59 75 -79 18 -11 18 -12 -7 -7 -25 6
-27 4 -23 -23 3 -25 -1 -30 -23 -34 -15 -3 -30 0 -34 6 -3 6 -15 12 -25 13
-10 2 -30 6 -44 9 l-27 7 19 -56 c10 -31 21 -72 25 -91 3 -19 10 -32 15 -29 5
3 6 -2 3 -11 -6 -15 21 -55 38 -55 4 0 8 8 8 18 0 14 43 72 54 72 7 0 33 -45
41 -70 l8 -25 -23 20 -23 20 8 -25 8 -25 -21 25 c-16 19 -21 21 -22 9 0 -9 -9
-19 -20 -22 -20 -5 -27 -31 -11 -41 5 -3 7 -15 4 -26 -6 -21 6 -27 22 -11 15
15 39 -9 69 -67 14 -28 31 -52 36 -52 5 0 7 7 4 15 -4 8 -11 15 -16 15 -6 0
-5 7 2 15 10 12 10 21 2 40 -10 21 -9 25 3 25 8 0 15 -6 15 -12 0 -7 3 -24 7
-37 5 -18 3 -22 -7 -16 -10 6 -12 4 -6 -11 4 -10 9 -28 10 -40 2 -11 6 -26 10
-32 5 -8 -3 -12 -23 -12 -21 0 -35 -7 -46 -23 -20 -30 -23 -69 -6 -75 9 -3 11
1 7 14 -5 18 2 19 113 20 100 0 118 -2 113 -14 -3 -10 0 -13 9 -10 16 5 22 65
8 74 -5 3 -9 -2 -9 -11 0 -9 -4 -14 -9 -11 -5 4 -11 2 -13 -3 -5 -15 -98 0
-98 15 0 8 -5 14 -11 14 -6 0 -9 7 -6 15 3 8 -2 44 -12 80 -15 53 -16 65 -5
65 9 0 14 -12 14 -32 0 -54 17 -68 26 -23 5 26 3 40 -5 43 -6 2 -11 8 -11 14
0 5 9 6 20 3 13 -4 22 -1 26 8 4 12 12 13 40 4 25 -8 31 -13 23 -21 -8 -8 -13
-7 -16 2 -5 14 -33 17 -33 3 0 -5 4 -11 9 -13 6 -2 6 -21 2 -45 -5 -24 -4 -40
0 -37 14 8 10 -10 -6 -32 -20 -26 -19 -44 3 -43 9 0 12 3 6 5 -8 4 -6 16 7 42
10 20 28 58 40 85 11 26 30 52 41 58 18 10 18 9 8 -10 -6 -12 -15 -21 -21 -21
-6 0 -7 -5 -4 -10 4 -6 24 -10 46 -8 36 2 39 4 45 37 4 20 17 50 29 66 42 58
56 110 46 174 -5 32 -16 75 -25 96 -13 30 -13 35 -2 26 24 -20 31 8 8 32 -11
12 -25 32 -31 45 -8 15 -21 22 -41 22 -17 0 -30 -4 -30 -8 0 -4 14 -29 30 -55
17 -26 30 -52 30 -58 0 -6 5 -7 10 -4 6 4 17 -9 25 -29 17 -41 20 -70 5 -46
-11 17 -11 16 -13 -63 -2 -61 -14 -78 -48 -70 -17 5 -19 1 -15 -32 5 -38 -1
-65 -13 -65 -4 0 -6 20 -5 45 3 42 -7 58 -21 35 -3 -5 -21 -10 -38 -10 -18 0
-27 -4 -21 -8 6 -4 14 -16 18 -27 7 -19 8 -19 27 4 14 16 19 19 19 8 0 -26
-29 -47 -65 -47 -47 0 -78 14 -124 55 -22 20 -44 34 -49 31 -6 -3 -15 8 -22
24 -7 16 -16 28 -20 25 -4 -3 -10 2 -14 10 -3 9 3 20 17 28 12 8 35 22 50 31
34 21 45 15 29 -17 -20 -39 -18 -81 5 -110 25 -32 37 -35 30 -7 -5 21 7 28 18
10 3 -5 11 -10 17 -10 6 0 5 7 -3 17 -13 15 -12 15 9 4 36 -19 25 -6 -19 23
-22 15 -38 30 -35 33 3 3 17 -2 30 -11 31 -20 42 -21 26 -1 -21 25 2 17 31
-11 24 -23 27 -24 23 -6 -3 11 -30 41 -61 67 -39 34 -51 51 -44 58 6 6 11 19
11 28 0 30 22 33 42 8 l20 -24 -6 34 c-8 45 -23 61 -55 60 -25 -1 -25 -2 4 -9
30 -8 30 -8 -7 -9 l-38 -1 0 50 c0 29 -5 50 -11 50 -5 0 -9 -8 -8 -17 3 -30
-1 -39 -10 -24 -7 11 -16 11 -55 -2 -44 -15 -46 -15 -61 6 -8 12 -15 24 -15
28 0 8 75 30 91 27 6 -2 13 2 16 9 2 7 -8 13 -24 15 -16 3 2 8 45 12 40 5 70
11 67 14 -12 13 -125 7 -166 -8z m59 -131 c18 -6 30 -15 27 -19 -6 -10 -62 7
-71 21 -7 12 6 11 44 -2z m67 -89 c-3 -5 -28 -22 -56 -37 -28 -15 -46 -29 -40
-31 6 -2 9 -8 5 -13 -8 -14 -21 -10 -21 7 0 9 23 31 51 50 50 34 73 43 61 24z
m20 -27 c-20 -14 -35 -17 -35 -7 0 12 35 32 44 27 5 -4 1 -12 -9 -20z m-195
-82 c0 18 26 33 41 23 12 -7 11 -31 -2 -39 -17 -11 -23 3 -8 22 7 10 2 8 -12
-4 -34 -30 -49 -29 -49 5 l1 27 14 -25 c10 -17 14 -20 15 -9z m167 -393 c-4
-14 -36 -12 -51 3 -6 5 3 9 23 9 22 0 31 -4 28 -12z"/>
<path d="M690 860 c0 -10 5 -31 11 -47 6 -15 15 -40 19 -56 8 -26 8 -26 -39
13 -26 22 -51 40 -56 40 -7 0 83 -102 95 -107 3 -1 13 4 24 12 18 13 18 15 -3
41 -24 31 -29 69 -7 61 12 -5 12 -1 0 23 -18 35 -44 47 -44 20z"/>
<path d="M904 740 c0 -64 1 -70 9 -43 6 21 6 49 1 75 -9 40 -9 38 -10 -32z"/>
<path d="M517 755 c-4 -8 -2 -17 3 -20 6 -4 10 3 10 14 0 25 -6 27 -13 6z"/>
<path d="M738 678 c9 -9 15 -9 24 0 9 9 7 12 -12 12 -19 0 -21 -3 -12 -12z"/>
<path d="M678 623 c7 -3 16 -2 19 1 4 3 -2 6 -13 5 -11 0 -14 -3 -6 -6z"/>
<path d="M675 290 c-3 -5 -1 -10 4 -10 6 0 11 5 11 10 0 6 -2 10 -4 10 -3 0
-8 -4 -11 -10z"/>
<path d="M501 189 c10 -7 5 -9 -20 -7 -19 2 -36 -2 -38 -8 -3 -8 16 -11 64 -8
57 4 64 3 43 -7 l-25 -12 30 -7 c17 -3 40 -12 52 -18 12 -7 24 -12 26 -12 4 0
57 76 57 82 0 2 -46 4 -102 5 -69 1 -97 -2 -87 -8z"/>
</g>
</svg>
