<?xml version="1.0" encoding="UTF-8"?>
<svg version="1.1" xmlns="http://www.w3.org/2000/svg" width="670" height="364">
<path d="M0 0 C-0.13671875 1.8203125 -0.13671875 1.8203125 -1 4 C-3.51953125 5.4921875 -3.51953125 5.4921875 -6.8125 6.875 C-7.98941406 7.390625 -9.16632813 7.90625 -10.37890625 8.4375 C-11.57386719 8.953125 -12.76882812 9.46875 -14 10 C-22.85942343 13.96144328 -32.80898385 18.47839511 -37.0625 27.8125 C-38.14108316 30.92593134 -38.14108316 30.92593134 -38 34 C-37.01 34.66 -36.02 35.32 -35 36 C-33.8125 38.125 -33.8125 38.125 -33 40 C-32.61328125 39.51789063 -32.2265625 39.03578125 -31.828125 38.5390625 C-31.30734375 37.90742187 -30.7865625 37.27578125 -30.25 36.625 C-29.73953125 35.99851563 -29.2290625 35.37203125 -28.703125 34.7265625 C-26.0494296 32.03634836 -23.95801137 31.07130269 -20.16259766 30.78881836 C-18.55457275 30.81407593 -18.55457275 30.81407593 -16.9140625 30.83984375 C-15.73585937 30.85080078 -14.55765625 30.86175781 -13.34375 30.87304688 C-12.1165625 30.89431641 -10.889375 30.91558594 -9.625 30.9375 C-7.20058273 30.97209792 -4.77609623 31.00219848 -2.3515625 31.02734375 C-1.27729004 31.04531006 -0.20301758 31.06327637 0.90380859 31.08178711 C4.02505696 30.99933811 6.93678274 30.58638402 10 30 C9.27683594 29.54560547 9.27683594 29.54560547 8.5390625 29.08203125 C4.49413399 26.3991705 2.53566036 24.7251088 1 20 C0.278125 19.154375 -0.44375 18.30875 -1.1875 17.4375 C-3 15 -3 15 -2.75 12.6875 C-2.5025 12.130625 -2.255 11.57375 -2 11 C2.70697214 11.75647767 7.03303475 13.32892961 11.5 14.9375 C12.61955078 15.33485352 12.61955078 15.33485352 13.76171875 15.74023438 C17.53941539 17.08750141 21.28910501 18.47588241 25 20 C25 21.32 25 22.64 25 24 C22.69 24.33 20.38 24.66 18 25 C18.6290625 25.18175781 19.258125 25.36351563 19.90625 25.55078125 C25.37061108 27.15552584 30.69219738 28.93585454 36 31 C36 31.99 36 32.98 36 34 C34.29457031 34.03867188 34.29457031 34.03867188 32.5546875 34.078125 C22.38359278 34.41524561 13.69734333 35.76784459 4 39 C4.82725586 39.14622803 5.65451172 39.29245605 6.50683594 39.44311523 C9.58581231 39.98805341 12.6645616 40.53425252 15.74316406 41.08129883 C17.07380398 41.31747932 18.40453236 41.55316195 19.73535156 41.78833008 C21.65192668 42.12709691 23.56815522 42.46782271 25.484375 42.80859375 C26.63647461 43.01282959 27.78857422 43.21706543 28.97558594 43.42749023 C31.34852151 43.87667767 33.6682664 44.37703684 36 45 C36 44.01 36 43.02 36 42 C37.32 41.67 38.64 41.34 40 41 C36.7 40.34 33.4 39.68 30 39 C29.67 38.01 29.34 37.02 29 36 C38.24 36 47.48 36 57 36 C57 35.01 57 34.02 57 33 C57.33 32.67 57.66 32.34 58 32 C60.66065706 32.03114002 63.27972036 32.13220423 65.93359375 32.29296875 C66.74098495 32.34043747 67.54837616 32.38790619 68.38023376 32.43681335 C76.2382516 32.9433905 84.0120861 33.87964347 91.80493164 34.99194336 C94.0644884 35.31278234 96.32586993 35.61700101 98.58789062 35.91992188 C108.89181293 37.34007389 118.91809199 39.45182545 129 42 C129 43.32 129 44.64 129 46 C127.98421875 46.08636719 126.9684375 46.17273438 125.921875 46.26171875 C116.8493648 47.14818965 109.2643433 48.89913268 101 53 C101 53.99 101 54.98 101 56 C124.1 56 147.2 56 171 56 C171.33 56.99 171.66 57.98 172 59 C163.9865537 62.11486118 155.91907321 63.09508457 147.4375 64.0625 C135.60013745 65.37993295 135.60013745 65.37993295 124 68 C124.33 68.66 124.66 69.32 125 70 C127.85659132 70.89170704 130.65252241 71.63514045 133.5625 72.3125 C134.47999023 72.5297876 135.39748047 72.7470752 136.34277344 72.97094727 C144.74892608 74.87613132 153.22922521 76.17745048 161.75 77.4375 C171.84692326 78.93294249 181.81958671 80.66196621 191.75 83.0625 C192.71776367 83.29573975 193.68552734 83.52897949 194.68261719 83.76928711 C197.4695168 84.46892616 200.23520565 85.21766489 203 86 C204.64838867 86.46188721 204.64838867 86.46188721 206.33007812 86.93310547 C207.42255859 87.2632666 208.51503906 87.59342773 209.640625 87.93359375 C210.64125977 88.23193115 211.64189453 88.53026855 212.67285156 88.83764648 C215 90 215 90 215.83496094 92.12915039 C215.88942383 92.74653076 215.94388672 93.36391113 216 94 C209.04163869 94.2197056 202.15777125 93.85836048 195.22265625 93.34375 C193.87740372 93.24404907 193.87740372 93.24404907 192.50497437 93.14233398 C188.76156204 92.86129147 185.01860664 92.57489348 181.27612305 92.28173828 C168.1539167 91.26175185 155.16191516 90.80716451 142 91 C142.82333337 95.24371429 144.34637374 96.31226493 147.9375 98.75 C161.96550938 108.55510733 178.4051127 120.17731813 186 136 C186 136.99 186 137.98 186 139 C181.74069048 138.460943 179.41250527 137.0751775 176.0625 134.4375 C164.68187919 125.89436551 151.68243526 117.05274611 137 118 C132.64115582 124.912083 130.20963228 131.20814214 128.71484375 139.23046875 C127.93105069 143.36358515 126.96508723 147.42220548 125.9375 151.5 C125.77491699 152.15830811 125.61233398 152.81661621 125.44482422 153.49487305 C124.46522875 157.39581553 123.31913202 161.2008998 122 165 C121.01 165 120.02 165 119 165 C116.85966424 158.34117765 116.0854389 151.67346542 115.3203125 144.73828125 C114.57796826 138.89232034 113.28039265 134.9138392 110 130 C105.87019644 130.52823069 103.81786764 132.75579489 100.875 135.5625 C96.20904836 140 96.20904836 140 94 140 C93.67 140.99 93.34 141.98 93 143 C91.82166609 144.14466723 90.64231837 145.28831551 89.45703125 146.42578125 C85.91918511 150.24817266 83.24374523 154.88388135 80.61328125 159.359375 C80.18402344 160.08640625 79.75476563 160.8134375 79.3125 161.5625 C78.93738281 162.22378906 78.56226563 162.88507813 78.17578125 163.56640625 C77.59376953 164.27603516 77.59376953 164.27603516 77 165 C76.01 165 75.02 165 74 165 C73.88947397 163.50175822 73.8132943 162.00097911 73.75 160.5 C73.70359375 159.6646875 73.6571875 158.829375 73.609375 157.96875 C74 155 74 155 78 147 C70.74 146.67 63.48 146.34 56 146 C55.34 144.68 54.68 143.36 54 142 C55.86591797 141.36384766 55.86591797 141.36384766 57.76953125 140.71484375 C70.65784553 136.21792589 82.91755167 131.69159192 91 120 C92.43049896 115.70850312 92.48782703 111.81826438 91.3125 107.4375 C87.60905977 100.55968243 82.54252371 96.97958467 76 93 C75.33355469 92.566875 74.66710937 92.13375 73.98046875 91.6875 C69.27949265 88.81118575 64.36289077 86.97347489 59.125 85.3125 C58.48941162 85.11003662 57.85382324 84.90757324 57.19897461 84.69897461 C46.30513313 81.41205149 35.09283563 80.40202536 23.8125 79.375 C22.36909964 79.24002089 20.92573986 79.10460706 19.48242188 78.96875 C15.98873376 78.64083184 12.49453708 78.31875953 9 78 C8.67 76.68 8.34 75.36 8 74 C12.99280493 72.67537828 17.98916719 71.60023099 23.0625 70.625 C30.80971502 69.10921963 38.40268942 67.14334722 46 65 C46.87688477 64.75282227 47.75376953 64.50564453 48.65722656 64.25097656 C59.37849057 61.2895947 59.37849057 61.2895947 70 58 C63.83703482 58.99591643 57.91598291 60.23589485 51.96386719 62.11743164 C45.70814309 63.98023581 39.33899667 65.44822035 33 67 C32.27507355 67.17787048 31.55014709 67.35574097 30.80325317 67.53900146 C26.34252756 68.62927799 21.87555849 69.68821639 17.40087891 70.71972656 C15.88542099 71.07282403 14.37170689 71.43349239 12.85986328 71.80175781 C1.40570758 74.58556513 -9.22078176 75.47054134 -21 75 C-21.33 76.65 -21.66 78.3 -22 80 C-29.81194367 79.19624406 -35.40032335 72.18162261 -40.12890625 66.39453125 C-47.91240836 55.55142355 -52.04448695 45.74624778 -50.65625 32.2109375 C-48.78390097 23.04980116 -42.5122758 16.21366568 -35 11 C-24.40078191 4.60668214 -12.64119734 -0.86189982 0 0 Z M-23.25 39.5625 C-28.56478549 50.00225721 -26.4111586 58.99762579 -24 70 C-23.34 70 -22.68 70 -22 70 C-22 69.34 -22 68.68 -22 68 C-21.38253906 67.81824219 -20.76507813 67.63648438 -20.12890625 67.44921875 C-19.28199219 67.19785156 -18.43507813 66.94648438 -17.5625 66.6875 C-16.73878906 66.44386719 -15.91507813 66.20023438 -15.06640625 65.94921875 C-13.38353613 65.42827934 -11.70393114 64.89356615 -10.04614258 64.29760742 C-3.96771324 62.13797723 2.0775393 60.95761251 8.4375 59.9375 C10.39473873 59.61453615 12.35177242 59.29032706 14.30859375 58.96484375 C15.2507373 58.80870605 16.19288086 58.65256836 17.16357422 58.49169922 C21.45988672 57.74692616 25.73074237 56.88545398 30 56 C21.66655606 45.58319508 5.50490394 43.71433509 -7 42 C-8.32 42 -9.64 42 -11 42 C-10 39 -10 39 -7.9375 37.8125 C-6.9784375 37.4103125 -6.9784375 37.4103125 -6 37 C-15.38301218 35.7307432 -15.38301218 35.7307432 -23.25 39.5625 Z M87 40 C88.485 40.99 88.485 40.99 90 42 C89.67 43.32 89.34 44.64 89 46 C93.82194643 45.67495741 93.82194643 45.67495741 97.9375 43.4375 C98.288125 42.963125 98.63875 42.48875 99 42 C94.82262526 40.40861915 91.46839215 39.78721942 87 40 Z M47 42 C47 42.33 47 42.66 47 43 C48.98 43 50.96 43 53 43 C53 42.67 53 42.34 53 42 C51.02 42 49.04 42 47 42 Z M81 48 C83.64 47.67 86.28 47.34 89 47 C85.59745511 45.7848054 84.06748874 46.13759612 81 48 Z M75 55 C79 56 79 56 79 56 Z " fill="#000000" transform="translate(246,67)"/>
<path d="M0 0 C1.6015625 1.22265625 1.6015625 1.22265625 2.6015625 3.97265625 C2.6015625 4.71515625 2.6015625 5.45765625 2.6015625 6.22265625 C-1.78622065 6.30391149 -5.97846963 6.19205374 -10.3359375 5.66015625 C-15.20451494 5.11668714 -19.55794882 5.52000467 -24.3984375 6.22265625 C-23.3465625 6.26132812 -23.3465625 6.26132812 -22.2734375 6.30078125 C-15.64009923 6.69733952 -11.13637625 7.86650339 -5.3984375 11.22265625 C-5.3984375 14.22265625 -5.3984375 14.22265625 -6.8359375 15.72265625 C-16.79800528 21.55411056 -28.06898119 21.43984741 -39.2734375 21.78515625 C-40.58650879 21.82761475 -41.89958008 21.87007324 -43.25244141 21.91381836 C-55.63411553 22.29459005 -68.01168131 22.33072862 -80.3984375 22.22265625 C-79.4496875 22.67640625 -78.5009375 23.13015625 -77.5234375 23.59765625 C-74.3984375 25.22265625 -74.3984375 25.22265625 -72.3984375 27.22265625 C-71.7734375 29.34765625 -71.7734375 29.34765625 -71.3984375 31.22265625 C-71.0684375 30.23265625 -70.7384375 29.24265625 -70.3984375 28.22265625 C-67.99048482 27.01867991 -66.9729286 27.24577425 -64.33203125 27.58203125 C-63.52491699 27.68322266 -62.71780273 27.78441406 -61.88623047 27.88867188 C-60.65477295 28.05399414 -60.65477295 28.05399414 -59.3984375 28.22265625 C-58.29653076 28.36477539 -58.29653076 28.36477539 -57.17236328 28.50976562 C-45.26034321 30.10266757 -33.89612004 32.74725161 -22.3984375 36.22265625 C-22.0684375 37.54265625 -21.7384375 38.86265625 -21.3984375 40.22265625 C-28.88170748 40.36468747 -36.20492903 39.66636168 -43.64648438 38.93359375 C-50.25227109 38.31664236 -56.76491143 38.10578022 -63.3984375 38.22265625 C-62.28984375 38.62097656 -61.18125 39.01929688 -60.0390625 39.4296875 C-58.57539164 39.96449031 -57.11185707 40.49966622 -55.6484375 41.03515625 C-54.91882813 41.29619141 -54.18921875 41.55722656 -53.4375 41.82617188 C-49.65765557 43.21784187 -46.47335585 44.52805675 -43.3984375 47.22265625 C-43.7284375 48.54265625 -44.0584375 49.86265625 -44.3984375 51.22265625 C-55.31390551 51.69326325 -64.02465674 50.97828549 -74.3984375 47.22265625 C-77.7238875 46.15560719 -81.06194517 45.12958069 -84.3984375 44.09765625 C-92.63752528 41.53181086 -92.63752528 41.53181086 -96.12890625 40.11328125 C-98.6405123 39.1276596 -101.06090592 38.59232881 -103.7109375 38.09765625 C-104.59394531 37.93007813 -105.47695313 37.7625 -106.38671875 37.58984375 C-107.05058594 37.46867187 -107.71445312 37.3475 -108.3984375 37.22265625 C-108.3984375 35.90265625 -108.3984375 34.58265625 -108.3984375 33.22265625 C-111.6984375 32.89265625 -114.9984375 32.56265625 -118.3984375 32.22265625 C-117.68558594 32.66996094 -116.97273437 33.11726563 -116.23828125 33.578125 C-98.83936868 44.56074949 -98.83936868 44.56074949 -93.4609375 51.84765625 C-88.47526873 57.58872938 -81.54400352 58.14192118 -74.3984375 59.22265625 C-74.3984375 60.54265625 -74.3984375 61.86265625 -74.3984375 63.22265625 C-77.3684375 63.55265625 -80.3384375 63.88265625 -83.3984375 64.22265625 C-80.7584375 65.87265625 -78.1184375 67.52265625 -75.3984375 69.22265625 C-75.7284375 70.21265625 -76.0584375 71.20265625 -76.3984375 72.22265625 C-77.3884375 72.07828125 -78.3784375 71.93390625 -79.3984375 71.78515625 C-83.39253215 71.21340446 -87.39376687 70.71445791 -91.3984375 70.22265625 C-90.7796875 70.96515625 -90.1609375 71.70765625 -89.5234375 72.47265625 C-85.98489703 77.05194391 -85.30377881 79.42481126 -85.3984375 85.22265625 C-83.95210937 85.92841797 -83.95210937 85.92841797 -82.4765625 86.6484375 C-81.20041454 87.27712804 -79.92437876 87.90604632 -78.6484375 88.53515625 C-78.01421875 88.84388672 -77.38 89.15261719 -76.7265625 89.47070312 C-73.36695838 91.13300725 -70.29984829 92.8414479 -67.3984375 95.22265625 C-67.7284375 96.21265625 -68.0584375 97.20265625 -68.3984375 98.22265625 C-74.0084375 97.89265625 -79.6184375 97.56265625 -85.3984375 97.22265625 C-80.93122504 101.68986871 -76.44953774 105.48110052 -71.3984375 109.22265625 C-71.7284375 110.54265625 -72.0584375 111.86265625 -72.3984375 113.22265625 C-75.3684375 113.22265625 -78.3384375 113.22265625 -81.3984375 113.22265625 C-80.94203437 117.96924875 -80.23798058 120.47962219 -77.3984375 124.22265625 C-77.5859375 126.41015625 -77.5859375 126.41015625 -78.3984375 128.22265625 C-79.0584375 128.55265625 -79.7184375 128.88265625 -80.3984375 129.22265625 C-79.35137593 135.39480864 -74.19595281 139.80759101 -69.4609375 143.53515625 C-68.7803125 144.09203125 -68.0996875 144.64890625 -67.3984375 145.22265625 C-67.3984375 146.21265625 -67.3984375 147.20265625 -67.3984375 148.22265625 C-72.53741877 147.58028359 -77.38191708 146.50813961 -82.3984375 145.22265625 C-81.91681064 149.38307603 -81.41955136 153.54127444 -80.90917969 157.69824219 C-80.73845122 159.10563301 -80.57163291 160.51350499 -80.40917969 161.921875 C-79.40148296 170.63036528 -77.9223974 178.76283158 -75.29199219 187.14990234 C-74.41463056 190.16697158 -73.85177368 193.11631284 -73.3984375 196.22265625 C-79.20310305 197.10215103 -79.84203964 195.19151186 -85.3984375 191.22265625 C-85.3984375 201.45265625 -85.3984375 211.68265625 -85.3984375 222.22265625 C-90.31973244 221.23839726 -91.80382663 220.40645445 -95.3984375 217.22265625 C-95.3984375 218.54265625 -95.3984375 219.86265625 -95.3984375 221.22265625 C-100.2922871 220.80318343 -102.12937747 218.73689579 -105.3984375 215.22265625 C-108.27018157 212.77116741 -110.94300477 210.75840413 -114.3984375 209.22265625 C-114.3984375 208.23265625 -114.3984375 207.24265625 -114.3984375 206.22265625 C-110.7684375 205.89265625 -107.1384375 205.56265625 -103.3984375 205.22265625 C-103.7078125 203.59328125 -104.0171875 201.96390625 -104.3359375 200.28515625 C-104.50996094 199.36863281 -104.68398438 198.45210937 -104.86328125 197.5078125 C-105.17558738 195.26975781 -105.17558738 195.26975781 -106.3984375 194.22265625 C-106.43907582 192.5564851 -106.4411585 190.8887753 -106.3984375 189.22265625 C-102.12500658 188.85636217 -99.91030946 189.81451548 -96.3984375 192.22265625 C-93.68472145 180.61667421 -93.07899353 170.13630422 -98.98046875 159.32421875 C-100.71476393 156.56597151 -102.5229503 153.88651197 -104.3984375 151.22265625 C-104.85734375 150.53945312 -105.31625 149.85625 -105.7890625 149.15234375 C-108.99688871 144.46242062 -112.65756319 140.7331995 -116.9375 137.01953125 C-117.85273438 136.2203125 -118.76796875 135.42109375 -119.7109375 134.59765625 C-120.59394531 133.84226563 -121.47695313 133.086875 -122.38671875 132.30859375 C-124.3984375 130.22265625 -124.3984375 130.22265625 -124.3984375 127.22265625 C-118.86484594 127.72829975 -114.83813175 129.17882493 -109.9609375 131.78515625 C-109.32478516 132.11451172 -108.68863281 132.44386719 -108.03320312 132.78320312 C-106.48349174 133.58718873 -104.94025428 134.40363291 -103.3984375 135.22265625 C-105.63036876 132.32599763 -107.73343006 129.75085635 -110.6484375 127.53515625 C-112.0096875 126.39046875 -112.0096875 126.39046875 -113.3984375 125.22265625 C-113.3984375 124.56265625 -113.3984375 123.90265625 -113.3984375 123.22265625 C-111.29394812 123.36375611 -109.1898498 123.510698 -107.0859375 123.66015625 C-105.32830078 123.78197266 -105.32830078 123.78197266 -103.53515625 123.90625 C-100.3984375 124.22265625 -100.3984375 124.22265625 -97.3984375 125.22265625 C-98.1409375 124.50078125 -98.8834375 123.77890625 -99.6484375 123.03515625 C-102.09134265 120.53673052 -104.2665422 117.98622423 -106.3984375 115.22265625 C-104.3984375 113.22265625 -104.3984375 113.22265625 -102.234375 113.02734375 C-101.42226563 113.05054688 -100.61015625 113.07375 -99.7734375 113.09765625 C-98.95617187 113.11570312 -98.13890625 113.13375 -97.296875 113.15234375 C-96.67039062 113.17554688 -96.04390625 113.19875 -95.3984375 113.22265625 C-97.89668896 106.02181379 -102.07161409 101.44053853 -108.3984375 97.22265625 C-108.3984375 95.90265625 -108.3984375 94.58265625 -108.3984375 93.22265625 C-102.4584375 93.71765625 -102.4584375 93.71765625 -96.3984375 94.22265625 C-99.4371928 89.10707736 -99.4371928 89.10707736 -104.0859375 86.41015625 C-104.89417969 85.99121094 -105.70242188 85.57226562 -106.53515625 85.140625 C-107.15003906 84.83769531 -107.76492188 84.53476563 -108.3984375 84.22265625 C-108.3984375 82.90265625 -108.3984375 81.58265625 -108.3984375 80.22265625 C-101.89993539 80.73819504 -95.73617218 81.68933334 -89.3984375 83.22265625 C-100.48767213 77.36498024 -110.78969651 72.62362747 -123.3984375 71.22265625 C-123.7284375 69.90265625 -124.0584375 68.58265625 -124.3984375 67.22265625 C-120.1169215 65.6740228 -116.02777201 64.74113261 -111.5234375 64.09765625 C-110.37101563 63.93007812 -109.21859375 63.7625 -108.03125 63.58984375 C-107.16242188 63.46867187 -106.29359375 63.3475 -105.3984375 63.22265625 C-108.28108899 62.26177242 -110.07506021 62.10594684 -113.06640625 62.125 C-113.95908203 62.12822266 -114.85175781 62.13144531 -115.77148438 62.13476562 C-116.70025391 62.14314453 -117.62902344 62.15152344 -118.5859375 62.16015625 C-119.52630859 62.16466797 -120.46667969 62.16917969 -121.43554688 62.17382812 C-123.75657462 62.18560999 -126.07747394 62.20206067 -128.3984375 62.22265625 C-126.72558594 58.37646484 -126.72558594 58.37646484 -123.78125 56.9921875 C-122.70617187 56.67636719 -121.63109375 56.36054687 -120.5234375 56.03515625 C-119.47414063 55.71160156 -118.42484375 55.38804688 -117.34375 55.0546875 C-112.13346145 53.76146569 -106.73800921 53.5712711 -101.3984375 53.22265625 C-104.83198763 51.00813682 -108.27099742 48.80223422 -111.7109375 46.59765625 C-112.66806641 45.98019531 -113.62519531 45.36273438 -114.61132812 44.7265625 C-121.06613 40.59722797 -127.63919807 36.82804493 -134.3984375 33.22265625 C-136.25260417 32.18098958 -138.10677083 31.13932292 -139.9609375 30.09765625 C-144.09584515 27.8496642 -148.21749378 25.92116675 -152.625 24.2734375 C-154.57864867 23.5332523 -156.51003023 22.73292354 -158.421875 21.890625 C-181.70908081 12.1490676 -205.38984848 9.55679742 -230.3984375 9.59765625 C-231.45447174 9.59670959 -232.51050598 9.59576294 -233.59854126 9.5947876 C-253.70793392 9.64128872 -273.76343527 11.44518185 -293.4609375 15.59765625 C-294.48550049 15.80825684 -295.51006348 16.01885742 -296.56567383 16.23583984 C-307.03909985 18.45680215 -318.03153723 20.86814461 -327.3984375 26.22265625 C-328.16799886 28.56799576 -328.16799886 28.56799576 -328.3984375 31.22265625 C-329.35238586 33.24502677 -330.34379101 35.25092585 -331.3984375 37.22265625 C-330.9034375 37.71765625 -330.9034375 37.71765625 -330.3984375 38.22265625 C-318.20787196 37.43616815 -306.35677597 33.53140172 -295.37719727 28.25048828 C-289.55072592 25.4784397 -283.93379342 24.04886368 -277.5859375 22.97265625 C-276.62413574 22.80282227 -275.66233398 22.63298828 -274.67138672 22.45800781 C-267.84551418 21.3132605 -261.3236484 20.69669087 -254.3984375 21.22265625 C-254.3984375 22.21265625 -254.3984375 23.20265625 -254.3984375 24.22265625 C-253.83447266 24.13177734 -253.27050781 24.04089844 -252.68945312 23.94726562 C-250.09342376 23.53266634 -247.495988 23.12761145 -244.8984375 22.72265625 C-244.0115625 22.57957031 -243.1246875 22.43648437 -242.2109375 22.2890625 C-236.86767651 21.46400014 -231.80447236 21.07108518 -226.3984375 21.22265625 C-226.3984375 22.54265625 -226.3984375 23.86265625 -226.3984375 25.22265625 C-226.97996582 25.30717041 -227.56149414 25.39168457 -228.16064453 25.47875977 C-243.12096586 27.71358765 -257.13892634 31.19654332 -271.3984375 36.22265625 C-272.63207031 36.64546875 -273.86570312 37.06828125 -275.13671875 37.50390625 C-284.77003987 40.98554612 -294.26332781 45.65273555 -302.71484375 51.46875 C-305.3984375 53.22265625 -305.3984375 53.22265625 -307.3984375 53.22265625 C-307.3984375 53.88265625 -307.3984375 54.54265625 -307.3984375 55.22265625 C-308.83203125 56.34375 -308.83203125 56.34375 -310.8359375 57.66015625 C-315.54297053 61.04385971 -318.86625765 65.18944204 -322.41796875 69.734375 C-325.47380515 73.57375919 -325.47380515 73.57375919 -327.3984375 75.22265625 C-328.0584375 75.22265625 -328.7184375 75.22265625 -329.3984375 75.22265625 C-328.93520223 70.43589181 -328.34912963 65.84813886 -327.2734375 61.16015625 C-326.30457523 56.44062262 -326.26323035 52.9256573 -327.3984375 48.22265625 C-329.61571944 45.31725232 -331.93507799 43.41009379 -335.3984375 42.22265625 C-343.14597922 41.29295124 -349.6647515 44.78615443 -356.3984375 48.22265625 C-357.0584375 47.56265625 -357.7184375 46.90265625 -358.3984375 46.22265625 C-359.7184375 46.22265625 -361.0384375 46.22265625 -362.3984375 46.22265625 C-362.18170092 40.91261008 -361.10085613 37.92480794 -357.4453125 34.04296875 C-323.98140712 4.28308343 -263.39607799 -2.00372961 -220.87207031 0.36328125 C-211.5251396 0.99092711 -202.73302766 2.27169522 -193.68383789 4.68383789 C-176.86590946 8.8164856 -158.58556491 8.92720859 -141.3984375 10.22265625 C-141.0684375 9.23265625 -140.7384375 8.24265625 -140.3984375 7.22265625 C-133.26750764 6.33873674 -126.14769614 5.86932325 -118.97467995 5.46793938 C-100.12737562 4.40551979 -81.30758263 3.00447489 -62.48608398 1.56323242 C-58.0184568 1.22119075 -53.55047621 0.88401708 -49.08238697 0.54807186 C-45.58981062 0.28492447 -42.09743212 0.01922399 -38.60510826 -0.24725151 C-36.95501484 -0.37284073 -35.30486028 -0.49762949 -33.65464211 -0.62156868 C-31.37217326 -0.79335654 -29.08999612 -0.96861256 -26.80786133 -1.14477539 C-25.51729324 -1.24311172 -24.22672516 -1.34144806 -22.89704895 -1.44276428 C-5.72723962 -3.08474875 -5.72723962 -3.08474875 0 0 Z M-138.3984375 11.22265625 C-138.3984375 11.55265625 -138.3984375 11.88265625 -138.3984375 12.22265625 C-135.7584375 12.22265625 -133.1184375 12.22265625 -130.3984375 12.22265625 C-130.3984375 11.89265625 -130.3984375 11.56265625 -130.3984375 11.22265625 C-133.0384375 11.22265625 -135.6784375 11.22265625 -138.3984375 11.22265625 Z M-110.3984375 15.22265625 C-110.3984375 15.55265625 -110.3984375 15.88265625 -110.3984375 16.22265625 C-108.7484375 16.22265625 -107.0984375 16.22265625 -105.3984375 16.22265625 C-105.3984375 15.89265625 -105.3984375 15.56265625 -105.3984375 15.22265625 C-107.0484375 15.22265625 -108.6984375 15.22265625 -110.3984375 15.22265625 Z M-104.3984375 16.22265625 C-104.3984375 16.55265625 -104.3984375 16.88265625 -104.3984375 17.22265625 C-102.7484375 17.22265625 -101.0984375 17.22265625 -99.3984375 17.22265625 C-99.3984375 16.89265625 -99.3984375 16.56265625 -99.3984375 16.22265625 C-101.0484375 16.22265625 -102.6984375 16.22265625 -104.3984375 16.22265625 Z M-99.3984375 17.22265625 C-95.3984375 18.22265625 -95.3984375 18.22265625 -95.3984375 18.22265625 Z M-94.3984375 18.22265625 C-90.3984375 19.22265625 -90.3984375 19.22265625 -90.3984375 19.22265625 Z M-123.3984375 22.22265625 C-120.20943294 24.34865929 -117.49429181 25.24401864 -113.8359375 26.34765625 C-112.67964844 26.70085938 -111.52335938 27.0540625 -110.33203125 27.41796875 C-107.58397093 28.3108328 -107.58397093 28.3108328 -105.3984375 28.22265625 C-105.7284375 29.54265625 -106.0584375 30.86265625 -106.3984375 32.22265625 C-105.0784375 31.89265625 -103.7584375 31.56265625 -102.3984375 31.22265625 C-102.3984375 29.24265625 -102.3984375 27.26265625 -102.3984375 25.22265625 C-104.7720772 24.71531341 -107.14701175 24.21663239 -109.5234375 23.72265625 C-110.18859375 23.57957031 -110.85375 23.43648437 -111.5390625 23.2890625 C-115.55900172 22.46142795 -119.29748649 22.06934967 -123.3984375 22.22265625 Z " fill="#000000" transform="translate(611.3984375,20.77734375)"/>
<path d="M0 0 C4.00181856 1.50178622 5.47754265 3.79880004 7.6875 7.375 C8.28949219 8.33148438 8.89148438 9.28796875 9.51171875 10.2734375 C10.78163918 12.59995839 11.54059935 14.41510565 12 17 C12.66 17 13.32 17 14 17 C15.11995823 18.52184298 16.1712542 20.09452889 17.1875 21.6875 C20.37503958 26.3528386 23.0083065 29.31927571 28 32 C31.2654246 32.07594011 32.48378151 31.39107461 35.0625 29.4375 C37.21062482 26.73502038 38.58322472 24.01538163 40.05078125 20.90625 C41.13559118 18.72770166 42.44336684 16.86795979 44 15 C47.45973076 16.03252544 48.12189027 17.21179343 49.96484375 20.4140625 C50.63308742 21.81264992 51.29015271 23.21661871 51.9375 24.625 C52.63785986 26.0846633 53.34095903 27.54301561 54.046875 29 C54.55057617 30.04414063 54.55057617 30.04414063 55.06445312 31.109375 C58.40538316 37.86098309 62.65847246 44.77231497 69 49 C70.32 49 71.64 49 73 49 C75.10860642 43.46490814 76.24498249 39.002071 76 33 C76.33 32.34 76.66 31.68 77 31 C84.76192147 34.28455474 90.11316279 42.79054388 94 50 C94.72316406 51.31291016 94.72316406 51.31291016 95.4609375 52.65234375 C104.49362934 70.46554568 107.42994703 90.53870281 103.81274414 110.14355469 C103 112 103 112 100.92358398 113.25488281 C100.28880127 113.50077148 99.65401855 113.74666016 99 114 C97.61613926 110.16777025 96.60284135 106.33801197 95.6875 102.375 C92.30672719 88.75048557 87.33783086 78.27443587 75.4375 70.46484375 C70.59703412 67.55590993 65.88087292 65.96016694 60.4375 64.625 C54.61894554 63.05693539 50.96481764 61.03503955 47.6015625 55.83984375 C44.27956309 49.78151534 42.86849871 43.81836298 42 37 C37.8266909 46.54909709 39.08604898 55.22969364 42 65 C42.65213539 66.34050052 43.31379969 67.67661368 44 69 C44 69.99 44 70.98 44 72 C38.86160971 72.11170414 36.09385486 70.69940259 32.125 67.4375 C25.70994546 61.29459929 21.94268447 53.84835671 18 46 C17.62536621 45.25540527 17.25073242 44.51081055 16.86474609 43.74365234 C13.95336646 37.93467921 13.95336646 37.93467921 12.56201172 35.05249023 C11.24127243 32.3353335 10.15300742 30.15300742 8 28 C7.8040625 28.61746094 7.608125 29.23492187 7.40625 29.87109375 C3.93834075 39.69185399 -2.39309934 45.7388304 -10.16796875 52.37890625 C-15.06907757 56.60538537 -15.06907757 56.60538537 -17.3046875 62.4375 C-16.74477403 67.14651585 -13.34799443 69.8716435 -10 73 C-5.93127716 76.17789998 -1.74173275 79.0612109 2.8046875 81.51171875 C3.52914063 82.00285156 4.25359375 82.49398437 5 83 C5 83.99 5 84.98 5 86 C-2.57073578 85.2809013 -9.96830346 83.9771518 -17.4375 82.5625 C-19.18256836 82.23668945 -19.18256836 82.23668945 -20.96289062 81.90429688 C-25.8750124 80.98379235 -30.77779404 80.04898456 -35.6640625 79 C-42.84083221 77.55649312 -50.11590548 76.69775918 -57.37329102 75.76782227 C-59.90163178 75.44212056 -62.42829946 75.10515595 -64.95507812 74.76757812 C-84.16790016 72.25216033 -103.20698739 71.83486443 -122.57080078 71.86962891 C-126.12667074 71.87500252 -129.68241503 71.86964237 -133.23828125 71.86328125 C-151.15725001 71.85578972 -168.654445 72.48576035 -186.375 75.25 C-187.44385437 75.41323761 -187.44385437 75.41323761 -188.53430176 75.57977295 C-199.25202102 77.22637334 -209.68023848 79.39503405 -220.08642578 82.4609375 C-223.09231305 83.30770952 -226.13707202 83.96020752 -229.1875 84.625 C-234.00432326 85.71227789 -238.43138212 87.15652261 -243 89 C-244.72723522 89.63031807 -246.45658473 90.25485913 -248.1875 90.875 C-250.12536073 91.58234586 -252.06284403 92.29072636 -254 93 C-255.02351563 93.36996094 -256.04703125 93.73992187 -257.1015625 94.12109375 C-264.44590718 96.84618515 -271.29463038 100.07100481 -278.19921875 103.7421875 C-279.12347656 104.15726562 -280.04773438 104.57234375 -281 105 C-281.66 104.67 -282.32 104.34 -283 104 C-282.65113142 101.23912626 -282.22058171 100.19471101 -280.1015625 98.32421875 C-279.28429687 97.78410156 -278.46703125 97.24398437 -277.625 96.6875 C-276.71234375 96.08164062 -275.7996875 95.47578125 -274.859375 94.8515625 C-273.91578125 94.24054688 -272.9721875 93.62953125 -272 93 C-271.15953125 92.43023437 -270.3190625 91.86046875 -269.453125 91.2734375 C-238.06921134 70.44593116 -201.27564155 61.65398816 -164.84082031 54.55957031 C-162.42910767 54.08452344 -160.02259431 53.59167799 -157.6171875 53.0859375 C-149.30702608 51.39660284 -141.10256042 50.4556531 -132.65722656 49.76879883 C-127.03613647 49.3051399 -121.47348582 48.68301962 -115.88916016 47.89428711 C-94.83794621 44.95788095 -73.53795068 44.53379398 -52.32479858 43.629776 C-48.48105921 43.46444763 -44.63758938 43.2932776 -40.79412842 43.12161255 C-38.05261155 43.00228988 -35.31081666 42.89326849 -32.56884766 42.78491211 C-30.87921269 42.7112108 -29.18959576 42.63709462 -27.5 42.5625 C-26.3618837 42.52190208 -26.3618837 42.52190208 -25.20077515 42.48048401 C-16.98109247 42.11019789 -16.98109247 42.11019789 -10.07421875 38.15234375 C-9.61660156 37.42144531 -9.15898437 36.69054687 -8.6875 35.9375 C-8.21699219 35.22464844 -7.74648438 34.51179688 -7.26171875 33.77734375 C-4.12239183 26.86693682 -3.48190236 19.01699095 -2.4375 11.5625 C-2.18937208 9.79252087 -1.93822049 8.02296216 -1.68359375 6.25390625 C-1.57587646 5.48377197 -1.46815918 4.7136377 -1.35717773 3.92016602 C-1 2 -1 2 0 0 Z " fill="#000000" transform="translate(377,224)"/>
<path d="M0 0 C-0.08984375 1.796875 -0.08984375 1.796875 -1 4 C-3.2001445 5.28163757 -5.23002696 6.27585292 -7.5625 7.25 C-8.93193984 7.85462311 -10.30039805 8.46147348 -11.66796875 9.0703125 C-12.38001465 9.38387695 -13.09206055 9.69744141 -13.82568359 10.02050781 C-17.3899662 11.62615589 -20.88297947 13.36882766 -24.375 15.125 C-25.05135498 15.4648291 -25.72770996 15.8046582 -26.42456055 16.15478516 C-31.35543736 18.64664874 -36.22428464 21.22024201 -41 24 C-41.73734375 24.42410156 -42.4746875 24.84820312 -43.234375 25.28515625 C-53.21708878 31.1410292 -63.08580791 37.30262763 -71.75 45 C-77.06330066 49.43294439 -81.20935947 50.46345556 -88 51 C-90.16423271 51.21673587 -92.32613609 51.44860554 -94.48779297 51.68969727 C-95.95664692 51.8505959 -97.42709774 51.99773262 -98.89892578 52.12866211 C-103.78910291 52.62386267 -107.66871995 53.61315336 -112 56 C-113.30196955 58.03919379 -113.30196955 58.03919379 -113.8125 60.375 C-115.34639463 64.42187094 -116.70341485 65.79533352 -120.625 67.625 C-121.50800781 68.0065625 -122.39101562 68.388125 -123.30078125 68.78125 C-129.22182839 71.45471846 -134.32380321 75.50843215 -139.203125 79.75390625 C-139.7602417 80.23778809 -140.3173584 80.72166992 -140.89135742 81.22021484 C-141.9690792 82.16646874 -143.03776381 83.12316481 -144.0949707 84.09228516 C-153.03255624 91.99855611 -163.73377231 93.27258787 -175.125 95.0625 C-177.41880348 95.42657659 -179.71171706 95.79443715 -182.00314331 96.17320251 C-183.41864756 96.40691944 -184.83554355 96.63242426 -186.25393677 96.84791565 C-190.87588913 97.60735128 -194.73626043 99.10412381 -199 101 C-203.57976787 102.36719438 -208.22696293 103.4515828 -212.875 104.5625 C-213.51906799 104.71751984 -214.16313599 104.87253967 -214.82672119 105.03225708 C-227.20188779 107.99511647 -239.22831585 110.14698869 -252 110 C-252 108.68 -252 107.36 -252 106 C-241.46697577 100.55529762 -230.71944195 95.57968569 -219.95214844 90.62036133 C-214.51546012 88.11247688 -209.0975279 85.59172041 -203.7578125 82.88305664 C-200.7642684 81.3792165 -197.72633008 79.97197067 -194.6875 78.5625 C-194.03797363 78.26029541 -193.38844727 77.95809082 -192.71923828 77.64672852 C-188.07054593 75.48738399 -183.40931411 73.3567086 -178.73828125 71.24609375 C-175.67051561 69.85006345 -172.61731491 68.42413079 -169.5625 67 C-164.49906959 64.65890806 -159.3927232 62.46967515 -154.234375 60.34765625 C-145.83884909 56.84952045 -137.51613825 53.16811971 -129.25 49.375 C-120.44560547 45.35388847 -111.48290094 41.77326065 -102.44140625 38.32421875 C-98.65804002 36.86841722 -94.88928229 35.3793092 -91.125 33.875 C-89.33449219 33.15957031 -89.33449219 33.15957031 -87.5078125 32.4296875 C-85.09068219 31.44453194 -82.68899503 30.44365518 -80.29296875 29.41015625 C-77.93420017 28.40005488 -75.5965762 27.43803334 -73.1875 26.5625 C-70.26232645 25.48435397 -67.3638752 24.35350352 -64.47265625 23.1875 C-49.26820364 17.09097491 -33.94080156 11.29679163 -18.57531738 5.61941528 C-17.23756381 5.12466389 -15.90039998 4.62831487 -14.56384277 4.13034058 C-12.69152167 3.43353427 -10.81651782 2.74394938 -8.94140625 2.0546875 C-7.86576416 1.65749512 -6.79012207 1.26030273 -5.68188477 0.85107422 C-3 0 -3 0 0 0 Z " fill="#000000" transform="translate(263,217)"/>
<path d="M0 0 C0.99 0 1.98 0 3 0 C7.8479665 5.41913496 10.25736328 12.84404461 12.75 19.5625 C13.04358398 20.35309814 13.33716797 21.14369629 13.63964844 21.95825195 C17.38212889 32.40582962 18.31696053 41.62339241 18.25 52.75 C18.26160156 54.70099609 18.26160156 54.70099609 18.2734375 56.69140625 C18.27085937 57.94308594 18.26828125 59.19476563 18.265625 60.484375 C18.26336914 61.61584961 18.26111328 62.74732422 18.25878906 63.91308594 C18.00001469 66.99982482 17.31016754 69.21182817 16 72 C14.68 72 13.36 72 12 72 C11.74347656 71.47792969 11.48695313 70.95585937 11.22265625 70.41796875 C4.35122313 57.20723369 -5.47767258 47.736307 -18 40 C-18.62519531 39.60554688 -19.25039063 39.21109375 -19.89453125 38.8046875 C-25.8573371 35.41530312 -32.26738128 34.77999851 -39 34 C-38.55269531 34.84820312 -38.10539062 35.69640625 -37.64453125 36.5703125 C-31.33779691 48.80725973 -27.07065465 59.88672239 -25.5625 73.625 C-23.8122368 88.95089621 -18.88632478 97.44018007 -7 107 C-7.495 108.485 -7.495 108.485 -8 110 C-20.08680674 107.78562319 -36.81336765 97.70288999 -44.4375 88.1875 C-46.60824793 84.98245453 -48.09991081 81.58552096 -49.6875 78.0625 C-56.70783496 63.52692395 -74.71675894 55.95135044 -89 50 C-89 48.68 -89 47.36 -89 46 C-85.32283227 46.61527413 -81.66209022 47.30095569 -78 48 C-77.09765625 48.14824219 -76.1953125 48.29648438 -75.265625 48.44921875 C-68.28778188 49.83887395 -62.33014477 52.61239039 -56.0625 55.875 C-55.24523437 56.2978125 -54.42796875 56.720625 -53.5859375 57.15625 C-48.99562366 59.62970837 -45.46472817 62.09430643 -42 66 C-42.75372631 55.19658953 -47.32318037 45.94738779 -54.42578125 37.92578125 C-56 36 -56 36 -56 34 C-56.556875 33.76152344 -57.11375 33.52304688 -57.6875 33.27734375 C-60.52296753 31.71113111 -62.62722978 29.76526991 -65 27.5625 C-67.90616522 24.87341115 -70.78515916 22.31438774 -74 20 C-73.67 19.01 -73.34 18.02 -73 17 C-64.52661217 12.76330608 -50.75626593 16.35787306 -42.0625 18.25 C-41.11673096 18.45447754 -40.17096191 18.65895508 -39.1965332 18.86962891 C-33.71161838 20.1412564 -28.60967577 21.83034772 -23.41772461 24.00097656 C-19.58503413 25.58467539 -15.67741619 26.92280418 -11.75 28.25 C-10.986875 28.518125 -10.22375 28.78625 -9.4375 29.0625 C-5.14570773 30.5128298 -1.59521439 31.3219577 3 31 C5.21393079 27.44566214 4.99476456 25.00682569 4.1015625 21.09375 C3.62449627 19.22524061 3.13175905 17.3606759 2.625 15.5 C2.1329192 13.63675654 1.64576935 11.77220236 1.1640625 9.90625 C0.94186035 9.08447266 0.7196582 8.26269531 0.49072266 7.41601562 C-0.02392659 4.88220023 -0.08552787 2.57846433 0 0 Z " fill="#000000" transform="translate(479,149)"/>
<path d="M0 0 C-0.08386743 2.85149263 -0.54919405 4.53673459 -2.5546875 6.59765625 C-4.34072883 8.10578659 -6.16372281 9.5538787 -8 11 C-8.66 11.66 -9.32 12.32 -10 13 C1.15042254 11.05341672 1.15042254 11.05341672 12.125 8.3125 C15.85935846 7.23105683 19.07700134 6.68191903 23 7 C22.62614961 9.33164585 22.37975165 10.65224989 20.609375 12.2734375 C11.5252055 17.6552354 2.04437634 21.79155614 -8 25 C3.81643549 25.10010013 15.55492996 25.17985646 27.33203125 24.12109375 C30 24 30 24 32 25 C31 28 31 28 28.97265625 29.28125 C17.18907496 34.21611894 4.61117299 34.86610996 -8 36 C8.94277665 40.34239296 25.54708319 42.17498113 43 43 C43 43.99 43 44.98 43 46 C40.6073797 46.47852406 38.21459151 46.95559554 35.8203125 47.42578125 C34.12196829 47.77156601 32.42733194 48.13771775 30.7421875 48.54296875 C22.28139893 50.50339537 13.64618192 50.64209704 5 51 C5.56847656 51.67804688 6.13695312 52.35609375 6.72265625 53.0546875 C20.17091993 69.26444773 20.17091993 69.26444773 23 77 C22.34 77.66 21.68 78.32 21 79 C16.86259011 75.43452618 12.79139354 71.81503107 8.80541992 68.08032227 C-1.02637419 58.90773266 -11.4836473 50.97493385 -23 44 C-23.86625 43.46503906 -24.7325 42.93007812 -25.625 42.37890625 C-32.01739599 38.47135931 -38.3115494 34.8668788 -45.4375 32.5 C-46.613125 32.005 -47.78875 31.51 -49 31 C-49.72265625 28.90625 -49.72265625 28.90625 -50 27 C-49.34 26.67 -48.68 26.34 -48 26 C-53.28 24.68 -58.56 23.36 -64 22 C-64 21.01 -64 20.02 -64 19 C-63.27296875 18.92523438 -62.5459375 18.85046875 -61.796875 18.7734375 C-54.49255259 17.81825688 -48.85257241 15.78264471 -42.3984375 12.2421875 C-40 11 -40 11 -38 11 C-38 10.34 -38 9.68 -38 9 C-34.37173324 6.79188816 -30.93120019 6.50685832 -26.75 6.0625 C-21.06075338 5.39574871 -16.26507477 4.25646062 -11 2 C-7.03011572 0.74286998 -4.17824112 0 0 0 Z " fill="#000000" transform="translate(442,79)"/>
<path d="M0 0 C0.99 0.495 0.99 0.495 2 1 C0.50470604 4.75911891 -1.60405551 6.47948972 -4.8125 8.875 C-8.87781934 11.91322656 -11.86460983 15.04839515 -15 19 C-13.75605469 18.7834375 -12.51210938 18.566875 -11.23046875 18.34375 C-2.44736844 16.85887227 6.0552107 15.45728245 15 16 C14.67 17.32 14.34 18.64 14 20 C12.61941406 20.34611328 12.61941406 20.34611328 11.2109375 20.69921875 C-2.49285051 24.22982809 -14.98546197 28.364387 -27 36 C-26.35264893 35.80365967 -25.70529785 35.60731934 -25.03833008 35.4050293 C-13.63481101 31.98326972 -2.31221608 28.70923458 9.5 27.0625 C10.32781982 26.94672607 11.15563965 26.83095215 12.00854492 26.71166992 C17.37008796 26.03745083 22.59790128 25.90816432 28 26 C28 26.99 28 27.98 28 29 C26.47632813 29.36351562 26.47632813 29.36351562 24.921875 29.734375 C16.46854046 31.78016858 8.1847788 34.02793848 0 37 C-1.37865234 37.495 -1.37865234 37.495 -2.78515625 38 C-7.48533402 39.7720847 -11.26926639 41.51798196 -15 45 C-13.865625 44.690625 -12.73125 44.38125 -11.5625 44.0625 C0.4659885 41.10261016 12.82757067 41.4948725 25.0625 42.875 C26.13371094 42.99258667 26.13371094 42.99258667 27.2265625 43.11254883 C31.1006557 43.59175651 34.45474853 44.35522446 38 46 C37.67 46.99 37.34 47.98 37 49 C35.07027344 48.94779297 35.07027344 48.94779297 33.1015625 48.89453125 C22.37195119 48.69842344 11.85559264 49.1034495 1.1875 50.3125 C0.11000488 50.43020752 -0.96749023 50.54791504 -2.07763672 50.66918945 C-6.65280235 51.22707554 -10.80728351 51.81573522 -15.08203125 53.56640625 C-22.5570952 56.27794079 -31.02818364 55.54433598 -38.875 55.625 C-59.92101383 55.53201921 -59.92101383 55.53201921 -79.875 61.4375 C-81.68482906 62.24884688 -83.49472275 63.06004961 -85.3046875 63.87109375 C-86.4800708 64.41141235 -86.4800708 64.41141235 -87.67919922 64.96264648 C-91.9950143 66.8917332 -95.20873894 68.27378635 -100 68 C-98.55441914 63.66325741 -95.26167981 62.61692485 -91.4375 60.5625 C-90.74591797 60.18029297 -90.05433594 59.79808594 -89.34179688 59.40429688 C-72.11510633 49.94807998 -72.11510633 49.94807998 -64.1875 49.375 C-63.21167969 49.30023438 -62.23585937 49.22546875 -61.23046875 49.1484375 C-60.49441406 49.09945312 -59.75835937 49.05046875 -59 49 C-59.99 48.01 -60.98 47.02 -62 46 C-57.14482637 39.58239017 -52.1892948 34.12302025 -46 29 C-45.42121094 28.46117187 -44.84242188 27.92234375 -44.24609375 27.3671875 C-34.81454293 18.60786384 -23.41120645 11.83714451 -12 6 C-10.37964844 5.14341797 -10.37964844 5.14341797 -8.7265625 4.26953125 C-2.43773274 1.00561367 -2.43773274 1.00561367 0 0 Z " fill="#000000" transform="translate(279,216)"/>
<path d="M0 0 C0.495 1.98 0.495 1.98 1 4 C-0.65 4.66 -2.3 5.32 -4 6 C-2.97519531 6.40992188 -1.95039063 6.81984375 -0.89453125 7.2421875 C4.73697917 9.49479167 10.36848958 11.74739583 16 14 C15.9071875 15.175625 15.9071875 15.175625 15.8125 16.375 C15.874375 17.24125 15.93625 18.1075 16 19 C16.99 19.66 17.98 20.32 19 21 C19 21.99 19 22.98 19 24 C17.65808594 24.52787109 17.65808594 24.52787109 16.2890625 25.06640625 C9.39460583 27.88152022 3.51271547 30.7927233 -2.4921875 35.26171875 C-13.8052065 43.10329734 -25.32439595 46.45514152 -39 45 C-42.8701873 44.04305966 -46.38237178 42.66055066 -50 41 C-55.98825278 38.28006101 -60.4993845 37.28063431 -67 39 C-71.9580827 41.34856549 -75.98194525 44.43908677 -80.203125 47.92578125 C-80.79609375 48.28027344 -81.3890625 48.63476562 -82 49 C-82.99 48.67 -83.98 48.34 -85 48 C-85.3209047 44.40691945 -85.27740894 42.46919784 -83.41796875 39.32421875 C-77.82264463 32.70978131 -71.8279527 27.31062988 -65 22 C-64.34 21.34 -63.68 20.68 -63 20 C-64.19625 20.33 -65.3925 20.66 -66.625 21 C-70.15791497 21.89265823 -73.34079109 22.18296045 -77 22 C-75.10057904 16.86493752 -71.15797959 15.72566672 -66.44921875 13.5078125 C-45.79510983 4.47894949 -22.61949415 -0.87937558 0 0 Z M-30.05078125 15.4375 C-31.03899117 15.50408813 -31.03899117 15.50408813 -32.04716492 15.57202148 C-34.13571975 15.71311304 -36.22410797 15.85652085 -38.3125 16 C-39.73501564 16.09650761 -41.15754159 16.19286336 -42.58007812 16.2890625 C-46.05350646 16.52428466 -49.5267893 16.76158335 -53 17 C-53 17.33 -53 17.66 -53 18 C-50.03 18 -47.06 18 -44 18 C-44 18.66 -44 19.32 -44 20 C-43.25234375 19.95359375 -42.5046875 19.9071875 -41.734375 19.859375 C-33.59005146 19.56089194 -33.59005146 19.56089194 -30.3125 22 C-29.879375 22.66 -29.44625 23.32 -29 24 C-29.9200925 27.17850137 -30.41435249 28.65177716 -33.3125 30.375 C-37.27920182 31.29748879 -39.71267903 30.77239258 -43.1875 28.6875 C-45.09472373 26.91180894 -46.01011345 25.39222583 -47 23 C-49.16641665 24.66545339 -49.16641665 24.66545339 -51 27 C-51.31241113 29.53084814 -51.31241113 29.53084814 -50 32 C-44.64368312 37.35631688 -40.52164547 38.13943876 -33.1875 38.1875 C-24.62663808 38.21496982 -24.62663808 38.21496982 -17.14453125 34.484375 C-14.75240601 31.96634843 -13.06100825 30.15915682 -12.875 26.625 C-13.24625 25.75875 -13.6175 24.8925 -14 24 C-14.32355469 23.23816406 -14.64710938 22.47632813 -14.98046875 21.69140625 C-15.95210771 19.44295652 -16.96107202 17.21799042 -18 15 C-22.03766432 14.94638786 -26.02272207 15.16324916 -30.05078125 15.4375 Z " fill="#000000" transform="translate(403,50)"/>
<path d="M0 0 C4.96446034 0.47280575 8.17055341 1.94152606 12 5 C12.78890625 5.62003906 13.5778125 6.24007812 14.390625 6.87890625 C23.49977043 14.50167914 29.0027965 23.52656676 30.25 35.375 C30.99082119 50.93224507 24.54767057 67.30060373 16 80 C15.01 79.67 14.02 79.34 13 79 C13.14417358 78.12432373 13.14417358 78.12432373 13.29125977 77.23095703 C13.7281183 74.53091007 14.14536787 71.82816195 14.5625 69.125 C14.71396484 68.2071875 14.86542969 67.289375 15.02148438 66.34375 C16.17205757 58.74461541 16.62002215 51.55158701 13.375 44.4375 C11.58748689 39.96871722 12.12676403 36.63972367 13 32 C12.25234375 32.09539062 11.5046875 32.19078125 10.734375 32.2890625 C9.74953125 32.39992188 8.7646875 32.51078125 7.75 32.625 C6.77546875 32.74101562 5.8009375 32.85703125 4.796875 32.9765625 C1.77952696 33.00184754 0.60193773 32.38490234 -2 31 C-4.36222232 30.76020238 -4.36222232 30.76020238 -6.75 30.875 C-7.94882812 30.90207031 -7.94882812 30.90207031 -9.171875 30.9296875 C-9.77515625 30.95289063 -10.3784375 30.97609375 -11 31 C-11.21178968 39.16566886 -11.35709844 47.10285999 -9 55 C-8.67 55.33 -8.34 55.66 -8 56 C-7.95936168 57.66617115 -7.957279 59.33388095 -8 61 C-9.32 61 -10.64 61 -12 61 C-17.58990758 50.41910351 -20.65415362 41.45206718 -20.375 29.375 C-20.37371094 28.30765625 -20.37242187 27.2403125 -20.37109375 26.140625 C-20.30106301 19.80673354 -19.60566353 14.12721202 -18 8 C-16.68 7.67 -15.36 7.34 -14 7 C-13.1028125 8.3921875 -13.1028125 8.3921875 -12.1875 9.8125 C-10.22220454 12.88449175 -10.22220454 12.88449175 -8.25 14.75 C-7 16 -7 16 -7 18 C-6.21625 18.28875 -5.4325 18.5775 -4.625 18.875 C-2 20 -2 20 0 22 C4.34194936 21.90304884 4.34194936 21.90304884 8 20 C8.74586899 15.44191172 8.81547586 13.22589041 6.21484375 9.31640625 C4.76074446 7.54943199 3.27292922 5.80956993 1.75 4.1015625 C0 2 0 2 0 0 Z " fill="#000000" transform="translate(507,245)"/>
<path d="M0 0 C1.9375 2 1.9375 2 3 4 C1.02 4.99 1.02 4.99 -1 6 C-0.67 7.32 -0.34 8.64 0 10 C-1.75 10.75 -1.75 10.75 -4 11 C-6.25 9.0625 -6.25 9.0625 -8 7 C-8.61875 7.350625 -9.2375 7.70125 -9.875 8.0625 C-10.57625 8.371875 -11.2775 8.68125 -12 9 C-12.66 8.67 -13.32 8.34 -14 8 C-13.875 6.25 -13.875 6.25 -13 4 C-8.73850772 0.34729233 -5.59278757 -0.84419435 0 0 Z " fill="#000000" transform="translate(269,71)"/>
<path d="M0 0 C0.99 0 1.98 0 3 0 C3 0.99 3 1.98 3 3 C2.01 3 1.02 3 0 3 C0 2.01 0 1.02 0 0 Z " fill="#000000" transform="translate(231,105)"/>
</svg>
